<svg width="157" height="104" viewBox="0 0 157 104" fill="none" xmlns="http://www.w3.org/2000/svg">
<g clip-path="url(#clip0_338_220)">
<path d="M40.29 21.8902H50V23.7202H38.42V0.430176H40.28V21.8902H40.29Z" fill="#AF2426"/>
<path d="M52.6201 0.430176H54.7501L52.0901 6.22018H50.9301L52.6301 0.430176H52.6201Z" fill="#AF2426"/>
<path d="M67.2301 17.66H56.7901L54.3901 23.71H52.4301L62.0001 0L71.5801 23.72H69.6201L67.2201 17.67L67.2301 17.66ZM57.4801 15.96H66.5301L62.0101 4.38L57.4901 15.96H57.4801Z" fill="#AF2426"/>
<path d="M85.55 0.430176V2.19018H79.2V23.7102H77.34V2.20018H70.99V0.430176H85.56H85.55Z" fill="#AF2426"/>
<path d="M91.51 10.6402H101.46V12.3702H91.51V21.8802H101.72V23.7102H89.64V0.430176H101.62V2.23018H91.51V10.6502V10.6402Z" fill="#AF2426"/>
<path d="M108.5 21.8902H118.38V23.7202H106.64V0.430176H108.5V21.8902ZM117.18 16.4702H115.38V0.430176H117.18V16.4602V16.4702Z" fill="#AF2426"/>
<path d="M124.93 10.6402H134.88V12.3702H124.93V21.8802H135.14V23.7102H123.06V0.430176H135.04V2.23018H124.93V10.6502V10.6402Z" fill="#AF2426"/>
<path d="M155.26 23.0502V23.7202H153.36V23.0502C153.36 19.8902 150.83 16.2602 146.61 16.2602H141.92V23.7102H140.06V0.430176H146.98C152.27 0.430176 155.26 4.49018 155.26 8.38018C155.26 11.8402 153 14.6002 150.17 15.4702C153.16 16.6302 155.26 19.6902 155.26 23.0502ZM146.98 2.19018H141.92V14.5702H146.98C150.57 14.5702 153.3 11.8102 153.3 8.38018C153.3 4.95018 150.77 2.19018 146.98 2.19018Z" fill="#AF2426"/>
<path d="M38.42 27.6099H44.19V49.1599H54.35V54.5499H38.42V27.6099Z" fill="black"/>
<path d="M62.28 27.6099V45.6199C62.28 47.7799 64.01 49.4299 66.13 49.4299C68.25 49.4299 69.9801 47.7799 69.9801 45.6199V27.6099H75.71V45.4699C75.71 50.8999 71.44 55.0499 66.09 55.0499C60.74 55.0499 56.55 50.8899 56.55 45.4699V27.6099H62.28Z" fill="black"/>
<path d="M98 53.9299C96.42 54.6599 94.5 55.0499 92.54 55.0499C84.69 55.0499 78.76 49.0499 78.76 41.1199C78.76 33.1899 84.69 27.1499 92.54 27.1499C94.5 27.1499 96.5 27.5699 98 28.2699V34.9699C96.69 33.6999 94.81 32.8199 92.54 32.8199C88.08 32.8199 84.8 36.3599 84.8 41.1299C84.8 45.8999 88.15 49.3999 92.54 49.3999C94.81 49.3999 96.7 48.5099 98 47.2399V53.9399V53.9299Z" fill="black"/>
<path d="M102.22 27.6099H107.99V54.5499H102.22V27.6099Z" fill="black"/>
<path d="M112.77 27.6099H129.39V33.2299H118.54V37.9299H129.05V43.3899H118.54V48.8899H129.58V54.5499H112.76V27.6099H112.77Z" fill="black"/>
<path d="M133.77 27.6099H138.7L149.82 39.8899V27.6099H155.36V55.0499L139.31 36.8499V54.5499H133.77V27.6099Z" fill="black"/>
<path d="M10.07 79.0599L14.22 71.0099C18.12 63.5899 23.41 58.1099 35.11 58.1099V73.3999C29.64 73.3999 27.18 77.0499 25.04 81.1399L20.7 89.4399C16.74 96.9899 12.46 102.15 0 102.15V86.8599C6.1 86.8599 7.55 83.8999 10.07 79.0599Z" fill="black"/>
<path d="M96.96 103.09L69.47 58.1099H85.95L96.96 77.8599L107.97 58.1099H124.45L96.96 103.09Z" fill="black"/>
<path d="M126.42 58.1101H155.93V71.5701H141.52V75.0901H155.36V84.5901H141.52V88.4901H156.12V102.14H126.43V58.1001L126.42 58.1101Z" fill="black"/>
<path d="M53.2801 88.4899V84.5899H67.1201V75.0899H53.2801V71.5699H67.6801V58.1099H48.6201L53.1901 66.2599H46.1601L38.1801 58.1899V102.14H67.8701V88.4899H53.2801Z" fill="black"/>
</g>
<defs>
<clipPath id="clip0_338_220">
<rect width="156.11" height="103.09" fill="white"/>
</clipPath>
</defs>
</svg>
